<?xml version="1.0" encoding="UTF-8"?>
<svg xmlns="http://www.w3.org/2000/svg" xmlns:xlink="http://www.w3.org/1999/xlink" width="30px" height="21px" viewBox="0 0 30 21" version="1.1">
<g id="surface1">
<path style="fill:none;stroke-width:3;stroke-linecap:butt;stroke-linejoin:miter;stroke:rgb(100%,100%,100%);stroke-opacity:1;stroke-miterlimit:10;" d="M 4.101567 1.500002 L 55.898496 1.500002 C 57.335997 1.500002 58.500061 2.656253 58.500061 4.101567 L 58.500061 37.898477 C 58.500061 39.335979 57.335997 40.500042 55.898496 40.500042 L 4.101567 40.500042 C 2.656253 40.500042 1.500002 39.335979 1.500002 37.898477 L 1.500002 4.101567 C 1.500002 2.656253 2.656253 1.500002 4.101567 1.500002 Z M 4.101567 1.500002 " transform="matrix(0.499999,0,0,0.499999,0,0)"/>
<path style=" stroke:none;fill-rule:nonzero;fill:rgb(100%,100%,100%);fill-opacity:1;" d="M 3.324219 3.652344 C 6.878906 5.832031 10.277344 8.273438 13.636719 10.734375 C 14.578125 11.367188 15.855469 11.230469 16.722656 10.503906 C 16.722656 10.503906 17.085938 10.242188 17.085938 10.242188 C 18.285156 9.375 19.519531 8.488281 20.730469 7.640625 C 22.6875 6.261719 24.660156 4.921875 26.671875 3.613281 C 26.671875 3.613281 26.878906 3.894531 26.878906 3.894531 C 23.910156 6.402344 20.855469 8.8125 17.765625 11.160156 C 16.277344 12.527344 14.207031 12.769531 12.597656 11.457031 C 12.355469 11.292969 11.765625 10.824219 11.527344 10.644531 C 8.671875 8.472656 5.859375 6.257812 3.175781 3.855469 C 3.175781 3.855469 3.324219 3.65625 3.324219 3.65625 Z M 3.324219 3.652344 "/>
<path style=" stroke:none;fill-rule:nonzero;fill:rgb(100%,100%,100%);fill-opacity:1;" d="M 26.507812 16.992188 L 17.824219 10.441406 L 18.675781 9.425781 L 26.605469 16.863281 Z M 26.507812 16.992188 "/>
<path style=" stroke:none;fill-rule:nonzero;fill:rgb(100%,100%,100%);fill-opacity:1;" d="M 3.699219 16.863281 L 11.628906 9.425781 L 12.488281 10.441406 L 3.800781 16.992188 Z M 3.699219 16.863281 "/>
</g>
</svg>
